<svg xmlns="http://www.w3.org/2000/svg" width="400.878" height="90.186" viewBox="0 0 400.878 90.186"><path d="M50.391 90.186h-50.391v-12.012h50.391v12.012zM57.91.293h24.902c9.7 0 16.902 1.44 21.606 4.321 4.704 2.881 7.056 7.365 7.056 13.452 0 4.004-1.025 7.422-3.076 10.254s-4.753 4.655-8.105 5.469v.488c4.427 1.172 7.633 3.125 9.619 5.859 1.985 2.734 2.979 6.283 2.979 10.645 0 6.478-2.434 11.581-7.3 15.308-4.867 3.728-11.499 5.591-19.897 5.591h-27.784v-71.387zm19.287 27.393h5.811c2.767 0 4.907-.569 6.421-1.709 1.514-1.139 2.271-2.832 2.271-5.078 0-4.004-3.027-6.006-9.082-6.006h-5.42v12.793zm0 14.111v14.99h6.787c6.022 0 9.033-2.539 9.033-7.617 0-2.376-.806-4.199-2.417-5.469s-3.947-1.904-7.007-1.904h-6.396zM125.293 71.68v-71.387h19.287v55.811h27.49v15.576h-46.777zM227.295 71.68l-3.516-13.379h-23.193l-3.613 13.379h-21.191l23.29-71.68h25.732l23.584 71.68h-21.093zm-7.52-29.2l-3.076-11.719c-.716-2.604-1.587-5.973-2.612-10.107-1.025-4.134-1.701-7.096-2.026-8.887-.293 1.66-.871 4.395-1.733 8.203-.863 3.809-2.775 11.312-5.737 22.51h15.184zM324.072 71.68h-25.293l-26.074-50.293h-.439c.618 7.91.928 13.949.928 18.115v32.178h-17.09v-71.387h25.195l25.977 49.609h.293c-.456-7.194-.684-12.972-.684-17.334v-32.275h17.188v71.387zM400.487 71.68h-21.776l-14.111-27.295-5.713 3.418v23.877h-19.385v-71.387h19.385v31.006c.977-1.92 2.946-4.964 5.908-9.131l14.99-21.875h21.093l-22.509 31.982 22.118 39.405z"/></svg>