<svg xmlns="http://www.w3.org/2000/svg" width="266.895" height="266.895" viewBox="0 0 266.895 266.895"><path d="M247.206-.094H20.094C9.252-.094.434 8.51.434 19.108v228.08c0 10.615 8.818 19.232 19.66 19.232h227.112c10.863 0 19.743-8.617 19.743-19.232V19.108c0-10.6-8.88-19.202-19.744-19.202zm-167.75 227.1H39.863V99.823h39.593v127.18zM59.67 82.433c-12.705 0-22.948-10.27-22.948-22.925 0-12.64 10.243-22.912 22.948-22.912 12.655 0 22.927 10.27 22.927 22.91 0 12.655-10.272 22.926-22.927 22.926zm167.916 144.57h-39.52v-61.842c0-14.752-.286-33.725-20.56-33.725-20.584 0-23.725 16.063-23.725 32.653v62.914h-39.506V99.824h37.915V117.2h.54c5.275-10 18.19-20.543 37.432-20.543 40.02 0 47.424 26.335 47.424 60.587v69.76z"/></svg>