<svg xmlns="http://www.w3.org/2000/svg" width="266.895" height="266.895" viewBox="0 0 266.895 266.895"><path d="M133.104 1.558c-72.473 0-131.23 58.753-131.23 131.23 0 53.73 32.312 99.895 78.55 120.192-.37-9.164-.066-20.165 2.284-30.135 2.523-10.652 16.886-71.506 16.886-71.506s-4.193-8.38-4.193-20.765c0-19.445 11.273-33.97 25.31-33.97 11.936 0 17.703 8.966 17.703 19.702 0 12-7.654 29.947-11.59 46.57-3.286 13.92 6.98 25.274 20.712 25.274 24.865 0 41.608-31.932 41.608-69.768 0-28.76-19.37-50.29-54.604-50.29-39.806 0-64.605 29.687-64.605 62.846 0 11.434 3.37 19.496 8.65 25.738 2.428 2.867 2.766 4.022 1.887 7.313-.63 2.414-2.076 8.227-2.674 10.53-.874 3.323-3.566 4.512-6.57 3.284-18.334-7.483-26.874-27.564-26.874-50.134 0-37.277 31.44-81.976 93.788-81.976 50.102 0 83.077 36.255 83.077 75.173 0 51.48-28.62 89.937-70.81 89.937-14.164 0-27.492-7.657-32.058-16.356 0 0-7.618 30.235-9.232 36.074-2.782 10.118-8.228 20.23-13.208 28.11 11.803 3.485 24.27 5.383 37.192 5.383 72.466 0 131.222-58.754 131.222-131.23S205.57 1.558 133.104 1.558z"/></svg>