<svg xmlns="http://www.w3.org/2000/svg" width="266.895" height="266.895" viewBox="0 0 266.895 266.895"><path d="M266.1 52.063c-9.72 4.31-20.167 7.225-31.13 8.535 11.188-6.708 19.784-17.33 23.83-29.988-10.473 6.212-22.073 10.723-34.42 13.153-9.887-10.535-23.974-17.116-39.563-17.116-29.935 0-54.205 24.268-54.205 54.202 0 4.247.48 8.384 1.403 12.352-45.048-2.262-84.988-23.84-111.722-56.635-4.666 8.005-7.34 17.316-7.34 27.25 0 18.806 9.57 35.396 24.114 45.117-8.885-.282-17.243-2.72-24.55-6.78-.006.227-.006.453-.006.682 0 26.262 18.685 48.17 43.48 53.15-4.547 1.237-9.336 1.9-14.28 1.9-3.492 0-6.887-.34-10.197-.973 6.898 21.533 26.916 37.206 50.635 37.643-18.55 14.538-41.922 23.204-67.318 23.204-4.375 0-8.69-.257-12.93-.76 23.987 15.38 52.48 24.355 83.09 24.355 99.7 0 154.22-82.595 154.22-154.223 0-2.35-.054-4.688-.158-7.013 10.593-7.64 19.78-17.187 27.048-28.057z"/></svg>