<svg xmlns="http://www.w3.org/2000/svg" width="266.895" height="266.895" viewBox="0 0 266.895 266.895"><g><path opacity=".12" fill-rule="evenodd" clip-rule="evenodd" d="M105.61 91.33l63.34 42.295 8.887-4.612L105.61 91.33z"/><path d="M264.2 78.32s-2.612-18.422-10.626-26.533c-10.164-10.647-21.558-10.7-26.783-11.322-37.403-2.704-93.515-2.704-93.515-2.704h-.115s-56.108 0-93.515 2.705c-5.226.623-16.615.675-26.783 11.322C4.848 59.897 2.24 78.32 2.24 78.32S-.433 99.95-.433 121.58v20.28c0 21.63 2.673 43.262 2.673 43.262s2.608 18.42 10.622 26.532c10.168 10.646 23.525 10.31 29.474 11.426 21.385 2.05 90.882 2.686 90.882 2.686s56.17-.084 93.573-2.79c5.227-.622 16.62-.675 26.784-11.32 8.014-8.112 10.626-26.533 10.626-26.533s2.67-21.63 2.67-43.262v-20.278c0-21.632-2.67-43.263-2.67-43.263zm-158.578 88.116l-.012-75.106 72.227 37.683-72.215 37.423z"/></g></svg>