<svg class="hidden" style="display: none;"><symbol viewBox="0 0 400.878 90.186" id="blank-logo"><title>blank-logo</title><path d="M50.391 90.186h-50.391v-12.012h50.391v12.012zM57.91.293h24.902c9.7 0 16.902 1.44 21.606 4.321 4.704 2.881 7.056 7.365 7.056 13.452 0 4.004-1.025 7.422-3.076 10.254s-4.753 4.655-8.105 5.469v.488c4.427 1.172 7.633 3.125 9.619 5.859 1.985 2.734 2.979 6.283 2.979 10.645 0 6.478-2.434 11.581-7.3 15.308-4.867 3.728-11.499 5.591-19.897 5.591h-27.784v-71.387zm19.287 27.393h5.811c2.767 0 4.907-.569 6.421-1.709 1.514-1.139 2.271-2.832 2.271-5.078 0-4.004-3.027-6.006-9.082-6.006h-5.42v12.793zm0 14.111v14.99h6.787c6.022 0 9.033-2.539 9.033-7.617 0-2.376-.806-4.199-2.417-5.469s-3.947-1.904-7.007-1.904h-6.396zM125.293 71.68v-71.387h19.287v55.811h27.49v15.576h-46.777zM227.295 71.68l-3.516-13.379h-23.193l-3.613 13.379h-21.191l23.29-71.68h25.732l23.584 71.68h-21.093zm-7.52-29.2l-3.076-11.719c-.716-2.604-1.587-5.973-2.612-10.107-1.025-4.134-1.701-7.096-2.026-8.887-.293 1.66-.871 4.395-1.733 8.203-.863 3.809-2.775 11.312-5.737 22.51h15.184zM324.072 71.68h-25.293l-26.074-50.293h-.439c.618 7.91.928 13.949.928 18.115v32.178h-17.09v-71.387h25.195l25.977 49.609h.293c-.456-7.194-.684-12.972-.684-17.334v-32.275h17.188v71.387zM400.487 71.68h-21.776l-14.111-27.295-5.713 3.418v23.877h-19.385v-71.387h19.385v31.006c.977-1.92 2.946-4.964 5.908-9.131l14.99-21.875h21.093l-22.509 31.982 22.118 39.405z"/></symbol><symbol viewBox="0 0 266.895 266.895" id="facebook"><title>facebook</title><path d="M252.164 0H14.73C6.594 0 0 6.594 0 14.73v237.434c0 8.135 6.594 14.73 14.73 14.73h127.826V163.54h-34.78v-40.28h34.78V93.553c0-34.473 21.055-53.244 51.807-53.244 14.73 0 27.39 1.097 31.08 1.587v36.026l-21.328.01c-16.725 0-19.963 7.947-19.963 19.61v25.716h39.887l-5.194 40.28h-34.693v103.354h68.012c8.135 0 14.73-6.596 14.73-14.73V14.73c0-8.136-6.596-14.73-14.73-14.73z"/></symbol><symbol viewBox="0 0 266.895 266.895" id="linkedin"><title>linkedin</title><path d="M247.206-.094H20.094C9.252-.094.434 8.51.434 19.108v228.08c0 10.615 8.818 19.232 19.66 19.232h227.112c10.863 0 19.743-8.617 19.743-19.232V19.108c0-10.6-8.88-19.202-19.744-19.202zm-167.75 227.1H39.863V99.823h39.593v127.18zM59.67 82.433c-12.705 0-22.948-10.27-22.948-22.925 0-12.64 10.243-22.912 22.948-22.912 12.655 0 22.927 10.27 22.927 22.91 0 12.655-10.272 22.926-22.927 22.926zm167.916 144.57h-39.52v-61.842c0-14.752-.286-33.725-20.56-33.725-20.584 0-23.725 16.063-23.725 32.653v62.914h-39.506V99.824h37.915V117.2h.54c5.275-10 18.19-20.543 37.432-20.543 40.02 0 47.424 26.335 47.424 60.587v69.76z"/></symbol><symbol viewBox="0 0 266.895 266.895" id="pinterest"><title>pinterest</title><path d="M133.104 1.558c-72.473 0-131.23 58.753-131.23 131.23 0 53.73 32.312 99.895 78.55 120.192-.37-9.164-.066-20.165 2.284-30.135 2.523-10.652 16.886-71.506 16.886-71.506s-4.193-8.38-4.193-20.765c0-19.445 11.273-33.97 25.31-33.97 11.936 0 17.703 8.966 17.703 19.702 0 12-7.654 29.947-11.59 46.57-3.286 13.92 6.98 25.274 20.712 25.274 24.865 0 41.608-31.932 41.608-69.768 0-28.76-19.37-50.29-54.604-50.29-39.806 0-64.605 29.687-64.605 62.846 0 11.434 3.37 19.496 8.65 25.738 2.428 2.867 2.766 4.022 1.887 7.313-.63 2.414-2.076 8.227-2.674 10.53-.874 3.323-3.566 4.512-6.57 3.284-18.334-7.483-26.874-27.564-26.874-50.134 0-37.277 31.44-81.976 93.788-81.976 50.102 0 83.077 36.255 83.077 75.173 0 51.48-28.62 89.937-70.81 89.937-14.164 0-27.492-7.657-32.058-16.356 0 0-7.618 30.235-9.232 36.074-2.782 10.118-8.228 20.23-13.208 28.11 11.803 3.485 24.27 5.383 37.192 5.383 72.466 0 131.222-58.754 131.222-131.23S205.57 1.558 133.104 1.558z"/></symbol><symbol viewBox="0 0 266.895 266.895" id="twitter"><title>twitter</title><path d="M266.1 52.063c-9.72 4.31-20.167 7.225-31.13 8.535 11.188-6.708 19.784-17.33 23.83-29.988-10.473 6.212-22.073 10.723-34.42 13.153-9.887-10.535-23.974-17.116-39.563-17.116-29.935 0-54.205 24.268-54.205 54.202 0 4.247.48 8.384 1.403 12.352-45.048-2.262-84.988-23.84-111.722-56.635-4.666 8.005-7.34 17.316-7.34 27.25 0 18.806 9.57 35.396 24.114 45.117-8.885-.282-17.243-2.72-24.55-6.78-.006.227-.006.453-.006.682 0 26.262 18.685 48.17 43.48 53.15-4.547 1.237-9.336 1.9-14.28 1.9-3.492 0-6.887-.34-10.197-.973 6.898 21.533 26.916 37.206 50.635 37.643-18.55 14.538-41.922 23.204-67.318 23.204-4.375 0-8.69-.257-12.93-.76 23.987 15.38 52.48 24.355 83.09 24.355 99.7 0 154.22-82.595 154.22-154.223 0-2.35-.054-4.688-.158-7.013 10.593-7.64 19.78-17.187 27.048-28.057z"/></symbol><symbol viewBox="0 0 266.895 266.895" id="youtube"><title>youtube</title><g><path opacity=".12" fill-rule="evenodd" clip-rule="evenodd" d="M105.61 91.33l63.34 42.295 8.887-4.612L105.61 91.33z"/><path d="M264.2 78.32s-2.612-18.422-10.626-26.533c-10.164-10.647-21.558-10.7-26.783-11.322-37.403-2.704-93.515-2.704-93.515-2.704h-.115s-56.108 0-93.515 2.705c-5.226.623-16.615.675-26.783 11.322C4.848 59.897 2.24 78.32 2.24 78.32S-.433 99.95-.433 121.58v20.28c0 21.63 2.673 43.262 2.673 43.262s2.608 18.42 10.622 26.532c10.168 10.646 23.525 10.31 29.474 11.426 21.385 2.05 90.882 2.686 90.882 2.686s56.17-.084 93.573-2.79c5.227-.622 16.62-.675 26.784-11.32 8.014-8.112 10.626-26.533 10.626-26.533s2.67-21.63 2.67-43.262v-20.278c0-21.632-2.67-43.263-2.67-43.263zm-158.578 88.116l-.012-75.106 72.227 37.683-72.215 37.423z"/></g></symbol></svg>